# xmcd CD database file
#
# Track frame offsets:
#	150
#	33619
#	56658
#	77731
#	87928
#	105584
#	121208
#	170496
#
# Disc length: 2586 seconds
#
# Revision: 0
# Processed by: cddbd v1.5.1PL2 Copyright (c) Steve Scherf et al.
# Submitted via: CDex 1.51
#
DISCID=600a1808
DTITLE=BO DIDDLEY - HEY
DYEAR=2006
DGENRE=Blues
TTITLE0=INTRO/BO DIDDLEY VAMP
TTITLE1=DOCTOR JECKYLL
TTITLE2=EVERLEEN
TTITLE3=I DON'T WHERE I'VE BEEN
TTITLE4=YOU CAN'T JUDGE A BOOK BY IT'S COVER
TTITLE5=ROADRUNNER
TTITLE6=I'M A MAN
TTITLE7=MONA
EXTD=YEAR: 2006
EXTT0=
EXTT1=
EXTT2=
EXTT3=
EXTT4=
EXTT5=
EXTT6=
EXTT7=
PLAYORDER=
